<?xml version="1.0" encoding="UTF-8" standalone="no"?>

<svg
   width="745.71875"
   height="125.12576"
   viewBox="0 0 197.30475 33.106188"
   version="1.1"
   id="svg9865"
   xmlns="http://www.w3.org/2000/svg"
   xmlns:svg="http://www.w3.org/2000/svg">
  <defs
     id="defs9862">
    <rect
       x="76.271187"
       y="322.03391"
       width="860.16949"
       height="385.59323"
       id="rect233" />
  </defs>
  <g
     id="layer1"
     transform="translate(-7.1810626,-36.363602)">
    <path
       id="lachsoft-logo"
       fill="#dc0807"
       d="m 323.4707,295.0571 c -13.34398,-0.192 -24.67178,10.65595 -24.67178,23.99994 0,12.67199 9.50458,22.84794 22.08057,23.99994 l 2.40012,0.28845 c 2.30399,0.192 4.12718,1.91934 4.12718,4.22333 0,2.304 -1.82319,4.22454 -4.12718,4.22454 -1.824,0.096 -3.4561,-0.76826 -3.93609,-2.49626 -0.192,-0.576 -0.1923,-1.05598 -0.1923,-1.53598 h -0.86414 c 0,0.48 1.5e-4,0.86473 0.0962,1.24873 0.384,2.208 2.78347,3.74365 5.08747,3.64765 2.784,-0.192 4.89638,-2.49683 4.89638,-5.18482 -0.096,-2.784 -2.39962,-4.70318 -5.18362,-4.89518 l -1.63213,-0.1923 c -12.09599,-0.768 -21.79227,-10.84796 -21.88827,-23.23195 -0.096,-13.15199 11.23225,-23.61596 24.19224,-23.23196 11.99999,0.288 21.31226,9.12015 22.65626,21.02414 0.096,0.864 0.1911,1.43997 0.1911,2.30397 h 0.76798 c 0,-0.96 -0.0961,-1.63242 -0.0961,-2.59242 -1.344,-12.38398 -11.32781,-21.50382 -23.9038,-21.59982 z m -169.63172,0.0962 c -12.76799,0.288 -23.80765,10.07937 -23.80765,22.84735 v 52.03213 h 2.49627 v -35.71207 h 25.91931 v 1.05644 h -24.76793 v 34.65563 h 2.20782 v -32.64011 h 22.56011 v 1.15258 h -21.50368 v 31.48753 h 1.82443 v -29.56696 h 19.5843 v 1.15138 h -18.14448 v 28.41558 h 1.34368 v -26.97575 h 16.8008 v 1.34368 h -15.16867 l -0.0961,25.63207 h 1.24873 v -24.19104 h 14.01609 v 1.63093 H 146.063 v 22.56011 h 1.05643 V 348.7214 h 11.23258 v 1.91937 h -9.12091 v 19.39201 h 0.96028 V 351.6972 h 8.35173 v 18.33558 h 0.86414 v -50.97569 c 0,-2.784 -2.59193,-5.08733 -5.37592,-4.99133 -2.592,0.192 -4.80023,2.01594 -4.80023,4.60794 v 13.15195 h -2.11167 v -13.825 c 0,-3.45599 3.45605,-5.85561 7.00805,-5.95161 3.93599,0 7.39144,3.07205 7.39144,7.00805 v 50.97569 h 0.96028 v -50.78339 c 0,-4.512 -3.83958,-8.16063 -8.25558,-8.16063 -4.03199,0 -8.16062,2.6888 -8.16062,6.7208 v 14.01609 h -1.72708 v -13.91994 c 0,-4.992 4.70356,-8.64032 9.79156,-8.73632 5.47199,-0.096 10.27229,4.4157 10.27229,9.8877 v 50.97569 h 1.05524 v -50.78339 c 0,-6.24 -5.08754,-11.32859 -11.32753,-11.23259 -5.76,0 -11.04029,4.22386 -11.04029,9.98385 v 13.825 h -1.53598 v -13.825 c 0,-6.62399 5.85612,-11.51997 12.48012,-11.61597 7.00799,0 12.76856,5.85671 12.76856,12.86471 v 50.78339 h 1.72707 v -50.78339 c 0,-7.872 -6.62349,-14.30439 -14.39948,-14.20839 -7.392,0.096 -13.91995,5.56766 -13.91995,12.95965 v 13.825 h -1.43982 l -0.0961,-13.91994 c 0,-8.06399 7.19978,-14.11254 15.35977,-14.30454 8.63999,-0.096 15.93666,7.00823 15.93666,15.64822 v 50.78339 h 1.72707 v -50.68724 c 0,-9.59999 -8.15989,-17.47235 -17.75988,-17.28035 -8.92799,0.096 -16.9919,6.62408 -16.9919,15.55207 v 14.20839 H 135.8869 V 318.2891 c 0,-9.69599 8.35234,-17.18329 18.04833,-17.37529 10.27199,-0.288 19.00862,8.06359 19.00862,18.33558 v 50.78339 h 1.91937 v -50.78339 c 0,-11.32799 -9.60015,-20.54445 -21.02414,-20.44845 -10.94399,0.192 -20.16,8.83262 -20.16,19.77661 v 13.2481 H 132.5277 V 318.0968 c 0,-11.42399 9.79124,-20.25539 21.21523,-20.54339 12.09599,-0.288 22.36902,9.59999 22.36902,21.69598 v 50.78339 h 2.49506 l 0.0961,-50.87954 c 0,-13.34399 -11.42409,-24.19194 -24.86408,-23.99994 z m 67.96879,0 c -20.83198,0.096 -38.01604,17.3765 -38.01604,38.30448 0.096,21.69597 17.75914,38.97557 38.97512,38.49557 4.224,-0.096 6.7209,-0.57642 10.6569,-1.82442 v -2.68736 c -4.032,1.344 -6.62505,1.53627 -10.75305,1.72827 -17.66398,0.96 -36.57561,-14.78499 -36.19161,-35.52097 0.288,-20.54398 16.8967,-35.99916 35.32868,-35.90316 4.51199,0 7.67998,0.38307 11.61598,1.72707 v -2.49506 c -4.32,-1.344 -7.00799,-1.82442 -11.61598,-1.82442 z m 169.43942,0.28844 c -20.92798,0.192 -37.92003,17.183 -38.01603,38.11098 0,21.21598 17.76034,38.68878 38.97632,38.49678 21.02398,-0.192 38.20683,-17.76004 38.01483,-38.78402 -0.192,-21.02398 -17.85514,-38.11174 -38.97512,-37.82374 z m -311.519706,1.34368 v 73.24736 h 44.352236 v -2.59121 H 82.319896 v -70.65615 z m 3.839943,0 v 69.50357 h 40.608443 l -0.0962,-2.11167 H 85.775244 v -67.3919 z m 3.168103,0 v 66.23931 h 37.44034 l -0.0962,-1.82322 -35.519767,0.0962 v -64.51224 z m 3.264252,0 v 63.16736 H 124.17587 V 358.4168 H 91.343461 v -61.63138 z m 2.879656,0 v 60.2877 h 31.296432 v -1.34368 H 94.126969 v -58.94402 z m 3.071955,0 v 57.1196 h 28.224477 v -0.96029 H 96.911679 v -56.15931 z m 3.168102,0 v 54.14379 h 25.056375 v -0.96028 H 99.983633 v -53.18351 z m 362.687695,0.0962 c -7.96799,0 -13.72877,1.6313 -19.10476,7.29529 -4.704,4.896 -6.81575,10.65682 -6.81575,16.03281 v 49.82311 h 2.59241 v -44.15994 l 41.66368,-0.0962 0.0962,-2.59121 h -24.38454 v -1.34368 c 0,-1.536 0.0964,-2.68915 1.05644,-3.84115 1.05599,-1.15199 2.30409,-1.43982 3.93609,-1.43982 h 19.29586 v -0.67184 h -19.39201 c -1.824,0 -3.26364,0.38427 -4.41564,1.72827 -1.15199,1.248 -1.34488,2.49654 -1.34488,4.22454 v 1.34368 h -2.11167 v -1.63213 c 0,-1.92 0.38443,-3.64777 1.82443,-5.27977 1.824,-2.112 4.2242,-2.40011 7.10419,-2.40011 h 18.33558 v -0.96029 h -18.33558 c -3.16799,0 -5.85618,0.57551 -7.87218,2.78351 -1.344,1.344 -1.92057,3.16912 -1.92057,5.37712 v 2.11167 h -1.91937 v -2.30397 c 0,-1.824 0.86351,-4.60865 2.7835,-6.62465 2.4,-2.592 5.08833,-3.1681 8.73633,-3.1681 h 18.52787 v -1.34368 H 461.6149 c -4.224,0 -7.39186,0.86439 -9.98386,4.12839 -1.72799,2.01599 -2.68856,4.03221 -2.68856,6.3362 v 2.97581 h -1.63212 v -2.97581 c 0,-1.728 0.96071,-4.80034 2.78471,-7.20034 2.87999,-3.648 6.62353,-4.70408 11.32753,-4.70408 h 18.72017 v -1.34368 h -18.81632 c -4.992,0 -8.73537,1.05518 -11.99937,4.89518 -2.304,2.68799 -3.3604,6.24107 -3.3604,8.44907 v 2.87966 h -1.24753 v -1.92057 c 0,-4.224 0.95964,-7.0071 3.64764,-10.2711 3.456,-4.32 7.58381,-5.37712 13.05581,-5.37712 h 18.72017 v -1.91937 h -18.62402 c -5.856,0 -10.9441,2.20822 -14.0161,5.56822 -3.35999,3.74399 -4.60793,7.39182 -4.60793,12.28781 v 1.63213 h -1.15138 v -3.64765 c 0,-2.68799 1.53518,-7.87273 4.89518,-11.32873 4.31999,-4.22399 9.69684,-5.56822 14.49683,-5.56822 h 19.00742 v -2.11166 h -19.00742 c -6.14399,0 -12.19281,2.2085 -16.03281,6.5285 -2.4,2.88 -5.47207,7.68011 -5.47207,13.2481 v 2.87966 h -1.05523 v -3.45655 c 0,-5.376 2.97547,-10.55966 5.08747,-12.95966 2.976,-3.45599 8.16064,-7.39144 18.24063,-7.39144 h 18.23943 v -2.49626 z m -222.91258,0.0961 v 73.05506 h 2.59241 v -43.96765 h 32.44782 v 0.96029 h -31.29523 v 43.00736 h 2.20781 v -40.70339 h 29.08742 l -0.0962,1.05643 h -27.93603 v 39.64696 h 1.72827 v -37.91989 h 26.30391 v 1.34489 h -24.86408 v 36.575 h 1.34488 V 334.8976 h 23.5192 v 1.53598 h -21.98322 v 33.5992 h 1.24753 v -32.35167 h 20.73569 v 1.72828 h -18.91127 v 30.62339 h 1.05524 v -29.47201 h 17.85603 v 2.01672 h -15.74316 v 27.45529 h 0.86293 v -26.59115 h 14.88023 v 26.59115 h 2.59241 v -73.05506 h -2.59241 v 26.40006 h -14.88023 l 0.0961,-26.40006 -0.95908,0.0949 -0.0962,26.30511 h -2.01672 v -26.40006 h -1.05524 v 26.40006 H 253.199 v -26.40006 h -1.24753 v 26.40006 h -1.53598 v -26.40006 l -1.34488,0.0949 v 26.30511 h -1.43983 v -26.40006 h -1.72827 v 26.40006 h -1.05524 v -26.40006 h -2.20781 v 26.40006 h -1.15259 v -26.40006 z m 38.78402,0 v 73.05506 h 2.20902 v -73.05506 z m 3.26426,0 v 73.05506 h 1.72827 v -73.05506 z m 3.1681,0 v 73.05506 h 1.34368 v -73.05506 z m 2.87966,0 v 73.05506 h 1.24873 v -73.05506 z m 3.07195,0 v 73.05506 h 1.05643 v -73.05506 z m 3.1681,0 v 73.05506 h 0.86414 v -73.05506 z m 192.95983,0 v 2.49506 h 16.22391 v 0.86414 h -16.22391 v 2.40011 h 16.22391 v 1.05644 h -16.22391 v 1.63212 h 16.22391 v 1.43983 h -16.22391 v 1.43983 h 16.22391 v 1.53598 h -16.22391 v 1.34368 h 16.22391 v 1.82442 h -16.22391 v 0.96029 h 16.22391 v 2.01552 h -16.22391 v 0.67183 h 16.22391 v 53.37581 h 2.68856 v -70.56 h 33.50425 v -2.49506 z M 323.4707,297.9368 c -11.71199,-0.288 -21.79212,9.3123 -21.79212,21.12029 -0.096,11.42399 8.83216,20.64073 20.25615,21.40873 l 1.72827,0.0949 c 3.648,0.288 6.62345,3.2639 6.62345,6.9119 0.096,3.83999 -3.0719,7.00819 -6.9119,7.10419 -3.07199,0.096 -5.5676,-1.43964 -6.7196,-4.41563 -0.384,-0.96 -0.47954,-1.44012 -0.47954,-2.40012 h -1.05643 c 0,0.576 0.0963,1.05613 0.19229,1.63213 0.768,3.93599 4.12729,6.4322 8.06328,6.3362 4.416,-0.096 8.06448,-3.64848 8.06448,-8.06448 0,-4.12799 -3.07234,-7.67928 -7.20034,-8.06328 l -2.20782,-0.28844 c -10.94398,-1.152 -19.48771,-9.69541 -19.19971,-20.5434 0.192,-11.13598 9.5034,-19.96875 20.54339,-19.87275 10.36799,0.096 18.52891,7.58404 19.96891,17.85603 0.096,0.96 0.19109,1.53627 0.19109,2.49627 h 1.05644 c 0,-0.96 -0.0963,-1.63242 -0.1923,-2.59242 -1.536,-10.75198 -9.984,-18.62417 -20.92799,-18.72017 z m 67.77649,0.0961 c 19.67998,-0.192 36.28791,15.83979 36.38391,35.51977 0.096,19.58398 -16.03194,35.80852 -35.61592,36.00052 -19.77598,0.192 -36.38391,-16.12839 -36.38391,-35.90437 0.096,-19.58398 16.03194,-35.42392 35.61592,-35.61592 z m -169.34447,1.05644 c -19.00799,-0.192 -34.17504,15.5524 -34.27104,34.36839 -0.096,19.10398 15.93504,34.94363 35.03902,34.65563 4.224,0 6.81705,-0.48043 10.75305,-1.82442 v -2.20782 c -3.936,1.44 -6.04905,1.92057 -10.75305,1.92057 -17.95198,0.192 -32.8315,-13.91998 -33.0235,-32.54396 -0.096,-17.75999 14.39953,-32.35302 32.25552,-32.44902 4.51199,0 7.96903,0.57642 11.52103,1.82442 v -1.91937 c -4.32,-1.44 -7.00904,-1.82442 -11.52103,-1.82442 z m 169.44062,0.19229 c -18.91198,-0.096 -34.17624,15.45506 -34.27224,34.27104 -0.096,19.10398 15.93625,34.94484 35.04023,34.65684 18.91198,-0.192 34.36704,-15.93595 34.27104,-34.84793 -0.288,-19.00798 -16.12705,-34.07995 -35.03903,-34.07995 z m -67.87264,1.34368 c -10.17599,-0.192 -18.91141,8.15959 -19.00741,18.33558 0,9.69599 7.2959,17.47188 16.99189,18.52787 l 3.07196,0.3846 c 5.08799,0.48 8.73632,4.60741 8.73632,9.6954 0,5.472 -4.41691,9.88786 -9.88891,9.98386 -4.51199,0.096 -8.4474,-2.68761 -9.6954,-6.7196 -0.288,-1.152 -0.38445,-1.91996 -0.28845,-3.07196 h -1.24753 c -0.096,0.96 3e-4,1.53641 0.1923,2.59241 1.056,5.28 6.14414,8.54403 10.94414,8.54403 6.14399,0 11.23138,-5.08859 11.23138,-11.23259 0,-5.85599 -4.32016,-10.65538 -10.17615,-11.23138 l -2.68736,-0.1923 c -9.11999,-0.768 -15.93637,-8.2565 -15.74437,-17.37649 0.192,-9.50399 8.1596,-16.9916 17.56759,-16.7996 8.73599,0.096 15.74375,6.43179 16.89575,14.59178 0.096,0.96 0.0962,1.63242 0.0962,2.59242 h 1.24873 c 0,-0.864 -1.5e-4,-1.34382 -0.0961,-2.20782 -1.152,-9.40799 -8.64049,-16.22421 -18.14448,-16.41621 z m 182.78368,0 v 69.40742 h 2.20782 v -67.29575 h 30.14505 v -2.11167 z m -114.91104,0.47955 c 17.85598,-0.096 32.83151,14.40073 33.02351,32.25672 0.096,17.85598 -14.39954,32.63921 -32.25552,32.83121 -18.04798,0.288 -33.21686,-14.59214 -33.12086,-32.64012 0.096,-17.75998 14.59289,-32.25581 32.35287,-32.44781 z m -167.82292,1.14897 c -0.51619,-0.01 -1.05371,-0.008 -1.6177,0.004 -17.08799,0.192 -31.00799,14.1123 -31.00799,31.20029 0,17.27998 13.63199,31.39138 31.77597,31.39138 3.264,0 7.20105,-0.67137 10.75305,-1.91937 v -1.92058 c -3.936,1.536 -6.52905,2.11167 -10.75305,2.11167 -16.41598,0.192 -30.14385,-13.24712 -30.14385,-29.6631 0,-16.22399 13.15188,-29.28016 29.37587,-29.56816 4.51199,-0.096 7.29703,0.38367 11.52103,2.11166 v -1.72827 c -3.696,-1.344 -6.29002,-1.95219 -9.90333,-2.01913 z m 167.82292,0.29085 c -16.99198,0.288 -31.00799,14.01601 -31.00799,31.00799 -0.096,17.27999 14.4,31.58459 31.77598,31.39259 18.14398,-0.288 31.19999,-14.3997 31.00799,-31.58368 -0.192,-17.18399 -14.68799,-31.0089 -31.77598,-30.8169 z m -68.51203,1.03481 c -8.5391,0.011 -15.29292,7.29986 -15.19992,15.66985 0,8.06399 5.9521,14.49577 14.01609,15.35977 l 3.1681,0.38459 c 6.624,0.768 11.42368,6.04707 11.42368,12.57506 0,7.008 -5.76056,12.67242 -12.76856,12.67242 -6.04799,0.096 -12.28751,-4.60756 -12.86351,-9.79156 -0.19199,-1.056 -0.19199,-1.72856 0,-2.68856 h -1.34367 c -0.192,1.056 -0.192,1.82366 0,2.87966 0.76799,5.66399 7.10304,11.23243 14.11103,11.13643 7.776,-0.096 14.20839,-6.43239 14.20839,-14.20839 0,-7.29599 -5.18412,-13.24794 -12.48011,-13.91994 l -3.45535,-0.38339 c -7.29599,-0.768 -12.76856,-6.72025 -12.76856,-14.11224 0,-7.77599 6.52855,-14.11224 14.30454,-14.11224 7.00799,-0.096 12.86319,4.41659 14.20719,11.23258 0.19199,1.152 0.19229,1.82381 0.19229,2.97581 h 1.43983 c 0,-1.056 -3e-4,-1.72856 -0.1923,-2.68856 -1.056,-7.68 -7.39148,-12.57566 -15.16747,-12.95966 -0.279,-0.015 -0.55623,-0.022 -0.83169,-0.0216 z m 186.68732,0.31008 v 66.14316 h 1.72828 v -64.31994 h 27.36034 v -1.82322 z m -118.17529,0.19109 c 16.22399,-0.096 29.9517,13.05693 30.0477,29.28092 0.192,16.31998 -12.67187,29.56755 -29.37586,29.95155 -16.41598,0.48 -30.23985,-13.24847 -30.14385,-29.76046 0.096,-16.12798 13.34403,-29.28001 29.47201,-29.47201 z m -169.34448,1.15259 c -15.45598,0.096 -27.93603,12.86344 -27.93603,28.31942 0,15.55199 12.76789,28.51248 28.60787,28.22448 4.224,0 7.58505,-0.86382 10.75305,-2.20781 v -1.53598 c -2.112,0.96 -5.08905,2.30411 -10.75305,2.40011 -15.35998,0.192 -27.35899,-12.09576 -27.26299,-26.97574 0,-14.59199 11.99917,-27.07266 26.59115,-26.78466 7.008,0.096 8.64089,1.15212 11.42489,2.40012 v -1.53598 c -4.128,-1.728 -6.91289,-2.30396 -11.42489,-2.30396 z m 169.34448,0.38339 c -15.45598,-0.096 -27.93603,12.6722 -27.93603,28.03218 0,15.55199 13.05589,28.70463 28.60787,28.32063 16.31999,-0.576 28.12804,-13.05589 27.93604,-28.60787 -0.096,-15.83999 -13.15189,-27.74494 -28.60788,-27.74494 z m -68.35218,0.48074 c -7.10399,0.192 -12.86456,6.04796 -12.76856,13.15196 0.192,6.62399 4.89689,11.90441 11.42488,12.67241 l 4.03104,0.38339 c 7.67999,0.864 12.96086,7.67978 12.96086,15.35977 0,8.44799 -7.00793,15.45592 -15.45592,15.45592 -7.67999,0 -14.30483,-5.66307 -15.26483,-12.57506 -0.096,-1.056 -0.096,-1.72871 0,-2.78471 h -1.72707 c -0.096,1.056 -0.097,1.82366 0.095,2.87966 0.768,7.96799 8.6405,14.40039 17.37649,14.20839 9.21599,-0.192 16.7996,-7.77591 16.7996,-16.9919 0,-8.83199 -6.04794,-16.22405 -14.68793,-17.08805 l -4.22334,-0.47954 c -5.56799,-0.576 -9.6006,-5.28029 -9.6966,-11.04028 -0.096,-6.24 5.08873,-11.42368 11.32873,-11.42368 5.66399,0 10.36738,3.83896 11.23138,9.40696 0.096,0.76799 0.0961,1.24872 0.0961,2.01672 h 1.72827 v -1.43983 c -0.192,-6.336 -6.43211,-11.80813 -13.2481,-11.71213 z m 68.35218,0.86414 c 14.97599,-0.096 27.071,11.71207 27.26299,26.40006 0.192,14.78398 -10.84716,26.49604 -26.59115,27.16804 -14.87998,0.672 -27.36019,-12.09696 -27.26419,-26.97695 0.096,-14.59198 11.90437,-26.59115 26.59235,-26.59115 z m 121.34339,0.0961 v 62.97506 h 1.34368 V 308.4975 h 24.57684 v -1.43983 z m -290.68787,1.05523 c -13.82398,0.192 -25.24732,11.42484 -25.15132,25.34483 0.192,14.01598 11.71223,25.82377 25.72822,25.43977 4.79999,-0.192 7.00799,-0.76842 10.84799,-2.59242 v -1.34368 c -3.84,2.016 -6.528,2.49536 -10.84799,2.68736 -12.86399,0.48 -24.48069,-10.84705 -24.48069,-24.19103 0,-13.15199 10.65566,-24.00024 23.80765,-24.19224 4.60799,0 8.06503,1.05551 11.52103,2.7835 v -1.34368 c -3.648,-1.72799 -6.91289,-2.59241 -11.42489,-2.59241 z m 169.34448,0.1923 c -13.72798,0.192 -24.96037,11.51949 -25.05637,25.24747 0,14.01599 11.71223,25.72897 25.72821,25.44098 14.87999,-0.384 25.15118,-11.71194 25.05518,-25.53592 -0.096,-13.91999 -11.71103,-25.24853 -25.72702,-25.15253 z m -68.15988,0.76799 c -5.568,0.096 -10.17585,4.8966 -9.98385,10.46459 0.192,5.376 4.704,9.02326 10.08,9.59926 l 2.11166,0.1923 c 9.504,1.056 16.31991,8.92788 16.22391,18.52787 -0.096,9.98399 -8.35173,18.14448 -18.43172,18.14448 -9.31199,0 -17.47278,-7.10393 -18.33678,-15.45592 -0.096,-1.056 -0.096,-1.72871 0,-2.78471 h -2.11167 c 0,1.056 1.5e-4,1.72871 0.0962,2.78471 0.96,9.88799 10.0794,17.75974 20.54339,17.66374 11.23199,-0.192 20.25615,-9.40876 20.25615,-20.64075 0,-10.55999 -7.48714,-19.48709 -18.04713,-20.35109 l -2.59241,-0.1923 c -4.32,-0.384 -7.77603,-3.55219 -7.77603,-7.87218 -0.096,-4.32 3.45618,-8.06343 7.87218,-8.15943 3.936,0 6.81618,2.59101 7.87218,6.335 0.192,0.672 0.2874,1.15258 0.3834,1.92058 h 1.92057 c 0.096,-0.864 -1.5e-4,-1.34382 -0.0962,-2.20782 -0.864,-4.416 -5.08786,-7.96833 -9.98385,-7.96833 z m 68.15988,0.47954 c 13.24799,-0.192 24.38349,10.65596 24.47949,23.99994 0.096,13.15199 -9.88766,24.09654 -23.80765,24.38454 -13.43998,0.192 -24.67283,-10.94455 -24.57683,-24.38454 0.096,-13.15198 10.75301,-23.80794 23.90499,-23.99994 z m 124.22305,0.48074 v 59.99926 h 1.24873 v -58.84787 h 21.79213 v -1.15139 z M 221.99886,311.281 c -12.09598,0.192 -21.98322,10.08074 -21.98322,22.17673 0,12.28798 10.27213,22.65581 22.56012,22.36781 3.93599,-0.192 7.10399,-0.76886 10.84799,-2.88086 v -1.15138 c -1.92,1.152 -5.08905,2.87981 -10.75305,2.97581 -11.80798,0.288 -21.69597,-9.5994 -21.69597,-21.31138 0,-11.61599 9.50415,-21.12059 21.02413,-21.31259 4.608,0 7.87289,0.95996 11.42489,3.07196 v -1.05644 c -3.936,-2.208 -6.81689,-2.97565 -11.42489,-2.87966 z m 169.34448,0.1923 c -11.99999,0.096 -21.98442,10.07953 -21.98442,22.17552 0,12.28799 10.27213,22.56087 22.56011,22.27287 13.15199,-0.384 22.17537,-10.27198 22.07937,-22.46396 -0.096,-12.19199 -10.36707,-22.08043 -22.65506,-21.98443 z m -68.15988,0.86414 c -3.84,0 -7.00895,3.2642 -6.81695,7.10419 0.096,3.744 3.3602,6.14331 7.10419,6.52731 l 2.20782,0.19229 c 11.13599,1.152 19.20106,10.65554 19.29706,21.40753 0,11.90399 -9.60089,21.88828 -21.50488,21.88828 -10.36799,0 -20.25598,-7.58389 -21.69597,-18.52788 -0.192,-1.24799 -0.1911,-2.0161 -0.1911,-3.1681 h -2.49626 c 0,0.864 1.5e-4,1.34382 0.0961,2.20782 1.05599,12.67199 11.6152,22.08057 24.28718,22.08057 13.34399,-0.096 24.57624,-11.23285 24.19224,-24.57683 -0.288,-11.80799 -9.21599,-22.8478 -21.69597,-23.9038 l -2.68736,-0.28724 c -2.304,-0.192 -4.41669,-2.01669 -4.32069,-4.32069 0,-2.304 2.01669,-4.12719 4.32069,-4.12719 1.91999,0 3.45504,1.05566 4.03104,2.87966 0.096,0.48 0.19214,0.95998 0.0961,1.53598 h 2.59242 c 0.096,-0.576 0.0958,-1.05613 -0.0962,-1.63213 -0.48,-2.592 -3.45561,-5.27977 -6.7196,-5.27977 z m 68.25603,0 c 11.71199,-0.096 21.50383,9.50324 21.59983,21.21523 0,11.61599 -8.64015,20.92874 -21.02414,21.40873 -11.80799,0.384 -21.69583,-9.69674 -21.59983,-21.40873 0,-11.51999 9.50415,-21.02323 21.02414,-21.21523 z m 127.19885,0.67184 v 57.02345 h 1.05644 v -55.96702 h 18.91247 v -1.05643 z m -295.78736,1.34128 c -0.27993,-0.004 -0.56412,-0.004 -0.85212,0.002 -10.36799,0.288 -18.91126,8.64078 -18.91126,19.10477 -0.096,10.55999 8.83217,19.39186 19.48816,19.29586 4.41599,-0.096 7.29599,-1.05685 10.84799,-3.64885 v -1.05523 c -3.552,2.784 -6.432,3.83994 -10.84799,3.83994 -10.17599,0.096 -18.72017,-8.25573 -18.72017,-18.43172 0,-10.07999 8.15943,-18.24093 18.23942,-18.43293 4.608,0 8.06474,1.24885 11.32874,3.64885 v -0.86414 c -3.06,-2.16 -6.37371,-3.39251 -10.57277,-3.45895 z m 168.49236,0.0986 c -10.36799,0.192 -18.81647,8.63957 -18.91247,19.10356 0,10.55999 8.92817,19.48801 19.48816,19.39201 10.55999,-0.096 19.10342,-8.92696 19.00742,-19.48695 -0.096,-10.55999 -8.92712,-19.20062 -19.58311,-19.00862 z m -237.31206,0.57569 c 2.30399,0 4.41563,1.63194 4.41563,3.83994 v 12.96086 h -8.35172 V 318.2891 c 0,-1.92 2.01609,-3.16825 3.93609,-3.26425 z m 237.40821,0.1923 c 10.17599,-0.096 18.62297,8.06464 18.71897,18.24063 0.096,10.07999 -8.06344,18.52802 -18.23943,18.62402 -10.17599,0.096 -18.72002,-8.25709 -18.62402,-18.52908 0,-9.98399 8.16049,-18.23957 18.14448,-18.33557 z m 130.36696,0.96028 v 53.85535 h 0.86414 v -53.08736 h 15.93666 v -0.76799 z m -82.17598,10.84799 v 43.00736 h 2.11287 v -40.89569 h 38.49558 v -2.11167 z m 3.3604,3.1681 v 39.83926 h 1.72828 V 332.0167 h 35.42362 v -1.82323 z m 2.97581,3.26426 v 36.575 h 1.53597 v -35.23132 h 32.73627 v -1.34368 z m 2.9758,2.87965 v 33.69535 h 1.24874 v -32.44782 h 30.0477 l -0.0962,-1.24753 z m 2.97581,2.97581 v 30.71954 h 1.05643 v -29.66311 h 27.2642 v -1.05643 z m 3.26425,3.1681 v 27.55144 h 0.76799 v -26.78345 h 24.28839 v -0.76799 z"
       transform="matrix(0.42997048,0,0,0.42997048,-27.099402,-90.501162)" />
  </g>
</svg>
