<?xml version="1.0" encoding="utf-8"?>
<svg version="1.1" xmlns="http://www.w3.org/2000/svg" xmlns:xlink="http://www.w3.org/1999/xlink" x="0px" y="0px" viewBox="0 0 256 256" enable-background="new 0 0 256 256" xml:space="preserve">
<g><path fill="#dc0807" d="M116.7,10.3C88.9,13.2,64,24.9,44.4,44.5c-18.8,18.8-29.9,41.6-33.9,69c-0.8,5.5-0.8,23.6,0,29.1c3.9,27.4,15.1,50.3,33.9,69c18.7,18.7,41.7,30,69,33.9c5.4,0.8,23.6,0.8,29.1,0c22.6-3.2,42.9-11.8,59.6-25.4c23.8-19.2,38.8-46.1,43.3-77.5c0.8-5.5,0.8-23.6,0-29.1c-3.9-27.3-15.1-50.3-33.9-69c-18.3-18.3-40.6-29.5-66.9-33.5C138.8,10.1,122.6,9.6,116.7,10.3z M99.3,76.6l11.4,27.2l-2.8,2.8c-4.7,4.5-7.9,10.6-8.8,16.1c-0.3,1.7-0.6,2.2-1.3,2.4c-2.4,0.5-57.8,7.5-58.1,7.3c-0.5-0.3-0.5-8.3,0.1-13.4c1.9-17.9,8.9-34.1,20.7-48.2c4.1-4.9,7.5-8.1,13.4-12.7c3.9-3,13.4-9.1,13.8-8.7C87.8,49.4,93,61.7,99.3,76.6z M177.2,54.4c12.5,8.3,23.1,20.4,30,34.2c6.4,12.9,9.5,25.7,9.5,39.4v4.8l-1.7-0.3c-2.4-0.4-56.7-7.2-57.3-7.2c-0.2,0-0.6-1.1-0.7-2.4c-0.7-5.4-4.2-11.8-8.7-16.2l-2.8-2.7l11.5-27.4L168.3,49l2.6,1.4C172.3,51.3,175.2,53.1,177.2,54.4z M127.8,157.3c4.7,0,6.1-0.1,8.9-1.1c1.8-0.6,3.5-1,3.6-0.9c0.6,0.6,35.8,46.8,35.8,47c0,0.3-6.6,4-9.9,5.7c-3.1,1.5-10.4,4.3-14.3,5.4c-22.7,6.4-47.1,3.3-68-8.6c-2.3-1.3-3.7-2.4-3.6-2.7c0.1-0.3,8.1-11,17.9-23.9l17.6-23.2l3.3,1.2C121.7,157.1,123.1,157.3,127.8,157.3z"/></g>
</svg>