<?xml version="1.0" encoding="UTF-8" standalone="no"?>
<!-- Created with Inkscape (http://www.inkscape.org/) -->

<svg
  version="1.1"
  id="svg2"
  xml:space="preserve"
  width="328.18668"
  height="266.66666"
  viewBox="0 0 328.18668 266.66666"
  sodipodi:docname="twitter.eps"
  xmlns:inkscape="http://www.inkscape.org/namespaces/inkscape"
  xmlns:sodipodi="http://sodipodi.sourceforge.net/DTD/sodipodi-0.dtd"
  xmlns="http://www.w3.org/2000/svg"
  xmlns:svg="http://www.w3.org/2000/svg"><defs
     id="defs6" /><sodipodi:namedview
     id="namedview4"
     pagecolor="#ffffff"
     bordercolor="#666666"
     borderopacity="1.0"
     inkscape:pageshadow="2"
     inkscape:pageopacity="0.0"
     inkscape:pagecheckerboard="0" /><g
     id="g8"
     inkscape:groupmode="layer"
     inkscape:label="ink_ext_XXXXXX"
     transform="matrix(1.3333333,0,0,-1.3333333,0,266.66667)"><g
       id="g10"
       transform="scale(0.1)"><path
         d="m 2209.43,1502.13 c 1.48,-21.66 1.48,-43.42 1.48,-65.27 C 2210.91,769.52 1702.88,0 774.055,0 V 0.390625 C 499.648,0.03125 230.938,78.6406 0,226.852 c 39.8945,-4.782 80.0352,-7.223 120.215,-7.293 227.437,-0.231 448.336,76.062 627.16,216.589 -216.055,4.071 -405.641,144.993 -471.797,350.711 75.668,-14.578 153.676,-11.609 228.02,8.661 -235.629,47.601 -405.0785,254.65 -405.141,495.03 0,2.17 0,4.34 0,6.4 70.227,-39.15 148.84,-60.82 229.199,-63.21 -221.918,148.19 -290.3787,443.38 -156.343,674.13 256.421,-315.48 634.726,-507.27 1040.767,-527.62 -40.71,175.37 14.94,359.16 146.09,482.5 203.36,191.25 523.26,181.43 714.51,-21.93 113.09,22.3 221.53,63.75 320.67,122.57 -37.7,-116.94 -116.6,-216.21 -222.02,-279.31 100.11,11.83 197.88,38.61 290.05,79.45 -67.81,-101.4 -153.12,-189.91 -251.95,-261.4"
         style="fill:#dc0807;fill-opacity:1;fill-rule:nonzero;stroke:none"
         id="path12" /></g></g></svg>